<?xml version="1.0" encoding="utf-8"?>
<!-- Generator: Adobe Illustrator 19.0.0, SVG Export Plug-In . SVG Version: 6.00 Build 0)  -->
<svg version="1.1" id="Layer_1" xmlns="http://www.w3.org/2000/svg" xmlns:xlink="http://www.w3.org/1999/xlink" x="0px" y="0px"
	 viewBox="-474 275.6 10.5 11.4" style="enable-background:new -474 275.6 10.5 11.4;" xml:space="preserve">
<style type="text/css">
	.st0{stroke:#000000;stroke-width:0.5;stroke-miterlimit:10;}
	.st1{fill:#231F20;}
</style>
<path class="st0" d="M-942.7,556.9c1.6,0,2.9-1.3,2.9-2.9c-0.1-1.5-1.3-2.8-2.9-2.8s-2.9,1.3-2.9,2.9
	C-945.6,555.7-944.3,556.9-942.7,556.9z"/>
<path class="st0" d="M-941,557.5h-3.4c-2,0-3.6,1.6-3.6,3.6v0.4c0,0.6,0.5,1,1.1,1h8.4c0.6,0,1-0.5,1-1v-0.4
	C-937.5,559.1-939.1,557.5-941,557.5z"/>
<path class="st1" d="M-468.8,275.6l-5.2,2.9h1.4v8.5h7.7v-8.5h1.4L-468.8,275.6z M-469.4,285.2h-1.8v-1.8h1.8V285.2z M-469.4,282.1
	h-1.8v-1.8h1.8V282.1z M-466.2,285.2h-1.8v-1.8h1.8V285.2z M-466.2,282.1h-1.8v-1.8h1.8V282.1z"/>
</svg>
